<svg id="svg" version="1.1" xmlns="http://www.w3.org/2000/svg" xmlns:xlink="http://www.w3.org/1999/xlink" width="400" height="224" viewBox="0, 0, 400,224"><g id="svgg"><path id="path0" d="M168.067 10.693 C 154.309 12.246,140.423 20.756,132.859 32.269 C 131.090 34.961,130.631 35.750,129.617 37.833 C 121.076 55.389,123.054 75.824,134.777 91.159 C 137.777 95.083,144.546 101.268,147.451 102.738 C 147.882 102.957,148.387 103.265,148.571 103.424 C 148.756 103.583,150.017 104.284,151.373 104.982 C 153.598 106.128,154.428 106.491,157.423 107.626 C 159.550 108.433,162.031 109.116,163.697 109.355 C 164.683 109.496,166.045 109.770,166.723 109.963 C 167.757 110.257,170.241 110.336,182.198 110.451 C 194.344 110.568,196.511 110.638,196.916 110.924 C 197.177 111.109,198.562 112.693,199.994 114.445 C 204.677 120.173,209.792 124.858,213.704 127.002 L 215.238 127.843 218.572 127.920 C 224.075 128.048,225.323 127.436,227.061 123.763 L 227.781 122.241 227.853 116.157 C 227.940 108.853,227.331 109.763,233.501 107.713 C 237.404 106.417,242.176 104.030,245.225 101.849 C 248.900 99.219,253.440 94.993,255.575 92.213 C 256.237 91.350,257.167 90.140,257.641 89.524 C 260.700 85.547,264.492 76.934,265.561 71.538 C 266.073 68.948,265.731 48.663,265.155 47.493 C 263.645 44.431,259.866 44.086,258.591 46.895 C 258.049 48.089,258.052 48.635,258.613 51.541 C 259.989 58.661,259.111 70.451,256.824 75.574 C 252.385 85.518,247.972 91.037,240.225 96.336 C 238.494 97.520,233.961 99.944,233.478 99.944 C 233.337 99.944,232.654 100.188,231.961 100.487 C 230.089 101.294,226.252 102.342,224.094 102.637 C 220.666 103.106,220.866 102.546,220.728 112.045 C 220.601 120.850,220.562 121.069,219.108 121.190 C 216.488 121.407,209.443 114.913,202.736 106.095 C 200.219 102.786,201.918 103.082,185.371 103.079 C 167.940 103.077,164.508 102.736,159.300 100.488 C 158.606 100.189,157.947 99.944,157.833 99.944 C 157.129 99.944,151.186 96.594,148.907 94.913 C 139.136 87.703,132.047 74.789,131.987 64.090 C 131.982 63.165,131.893 62.042,131.789 61.593 C 131.684 61.145,131.683 59.884,131.785 58.792 C 131.887 57.700,132.080 55.647,132.213 54.230 C 132.542 50.739,134.161 44.978,135.522 42.460 C 135.654 42.216,136.185 41.160,136.701 40.112 C 139.750 33.933,146.249 27.157,152.703 23.428 C 154.550 22.361,156.021 21.628,157.199 21.187 C 157.815 20.957,158.521 20.646,158.768 20.496 C 159.014 20.346,159.720 20.106,160.336 19.961 C 160.952 19.816,162.003 19.496,162.670 19.250 C 163.337 19.004,164.951 18.646,166.255 18.456 C 167.560 18.265,169.283 18.007,170.084 17.883 C 170.947 17.749,181.140 17.597,195.080 17.512 C 217.251 17.375,218.655 17.343,219.236 16.963 C 221.348 15.578,221.175 12.027,218.940 10.871 C 218.324 10.552,170.785 10.386,168.067 10.693 M162.872 37.426 C 158.808 38.450,156.621 43.001,158.403 46.723 C 161.461 53.107,171.021 51.076,171.059 44.034 C 171.082 39.744,166.939 36.400,162.872 37.426 M206.387 37.437 C 198.434 38.759,199.782 50.897,207.848 50.599 C 214.575 50.350,216.728 41.942,210.996 38.306 C 209.625 37.437,208.108 37.151,206.387 37.437 M158.746 62.724 C 152.663 65.486,162.194 77.804,174.266 82.781 C 192.285 90.210,213.837 85.369,224.255 71.552 C 226.675 68.342,226.872 63.254,224.604 62.506 C 222.511 61.815,221.416 62.486,219.160 65.841 C 207.394 83.333,175.557 83.315,164.585 65.809 C 162.439 62.386,161.076 61.665,158.746 62.724 M111.886 141.868 C 109.075 143.259,109.020 143.534,109.020 156.078 C 109.020 167.954,109.045 168.054,112.086 168.064 C 114.821 168.073,115.200 167.250,115.357 160.963 L 115.470 156.415 116.123 156.415 C 116.689 156.415,116.851 156.571,117.342 157.591 C 118.189 159.349,118.942 160.711,119.442 161.391 C 119.687 161.725,119.888 162.077,119.888 162.173 C 119.888 163.376,122.899 166.050,124.252 166.050 C 125.502 166.050,127.484 163.956,128.069 162.017 C 128.162 161.709,128.429 161.186,128.662 160.855 C 128.894 160.524,129.232 159.837,129.412 159.328 C 129.591 158.819,129.942 158.143,130.191 157.826 C 130.440 157.510,130.644 157.082,130.644 156.875 C 130.644 156.669,130.796 156.304,130.980 156.065 C 131.749 155.070,131.989 156.133,131.990 160.547 C 131.992 165.259,132.119 165.873,133.341 167.067 L 134.251 167.955 136.348 167.955 C 138.777 167.955,139.683 167.459,140.672 165.589 L 141.194 164.602 141.129 155.074 L 141.064 145.546 140.407 144.269 C 138.113 139.811,130.885 140.693,129.276 145.627 C 129.130 146.076,128.829 146.676,128.608 146.961 C 128.386 147.246,128.086 147.839,127.941 148.280 C 127.795 148.720,127.436 149.434,127.143 149.866 C 126.850 150.297,126.611 150.819,126.611 151.024 C 126.611 151.230,126.361 151.736,126.056 152.149 C 125.751 152.563,125.390 153.238,125.254 153.650 C 124.805 155.010,123.767 154.070,122.742 151.373 C 122.507 150.756,122.172 150.092,121.997 149.897 C 121.822 149.702,121.528 149.033,121.343 148.411 C 121.158 147.789,120.857 147.156,120.673 147.004 C 120.490 146.851,120.231 146.324,120.098 145.831 C 119.120 142.198,115.119 140.267,111.886 141.868 M147.339 142.142 C 145.443 143.445,145.322 143.661,145.322 145.738 C 145.322 147.850,145.170 147.597,149.463 152.603 C 152.670 156.342,152.605 156.192,152.605 159.870 C 152.605 166.180,153.610 167.955,157.182 167.955 C 160.915 167.955,161.777 166.291,161.789 159.056 C 161.793 156.266,161.594 156.661,165.266 152.177 C 169.456 147.062,169.412 147.135,169.412 145.318 C 169.412 142.906,167.982 141.513,165.507 141.513 C 163.245 141.513,162.402 142.161,158.253 147.091 C 157.337 148.179,156.779 147.887,154.271 145.006 C 150.845 141.071,149.628 140.568,147.339 142.142 M191.373 141.631 C 185.445 142.980,182.564 147.293,184.863 151.373 C 185.727 152.904,186.926 154.177,188.036 154.738 C 188.454 154.949,188.997 155.300,189.244 155.517 C 189.490 155.734,190.069 156.032,190.529 156.179 C 190.990 156.327,191.429 156.549,191.506 156.674 C 191.583 156.798,192.066 157.080,192.579 157.300 C 198.965 160.037,196.438 162.854,189.747 160.456 C 188.090 159.862,185.409 159.645,184.665 160.044 C 182.874 161.005,184.058 164.108,186.779 165.586 C 187.272 165.853,187.927 166.210,188.235 166.379 C 190.381 167.554,192.493 167.955,196.527 167.955 L 200.448 167.955 202.326 167.187 C 208.428 164.690,208.931 157.595,203.241 154.286 C 201.391 153.209,200.178 152.535,199.552 152.235 C 199.182 152.057,198.627 151.770,198.319 151.597 C 198.011 151.424,197.293 151.030,196.724 150.722 C 194.128 149.318,193.690 146.901,195.957 146.494 C 197.058 146.296,199.475 146.787,200.784 147.475 C 201.462 147.831,202.134 148.123,202.278 148.123 C 202.422 148.123,203.021 148.329,203.609 148.581 C 206.317 149.742,207.582 147.212,205.409 144.980 C 203.749 143.276,202.103 142.412,198.992 141.613 C 198.041 141.368,192.466 141.382,191.373 141.631 M214.348 141.557 C 213.088 141.899,212.067 143.145,211.672 144.823 C 211.198 146.836,211.257 163.323,211.745 165.195 C 212.428 167.815,216.466 168.998,218.869 167.283 C 220.116 166.393,220.952 164.429,220.952 162.393 C 220.952 160.250,221.088 160.148,224.123 160.002 C 228.591 159.787,231.899 158.041,233.978 154.802 C 236.326 151.142,233.542 143.862,229.357 142.719 C 228.865 142.584,228.058 142.258,227.564 141.993 C 226.681 141.520,215.804 141.161,214.348 141.557 M248.964 141.620 C 248.532 141.712,247.725 142.001,247.171 142.262 C 246.616 142.522,246.002 142.737,245.806 142.740 C 244.290 142.761,240.779 146.586,239.528 149.580 C 238.590 151.825,238.379 157.580,239.179 159.104 C 239.406 159.535,239.723 160.312,239.883 160.831 C 240.623 163.224,243.315 165.708,246.723 167.141 L 248.627 167.943 252.217 167.949 C 258.315 167.959,261.651 166.209,264.594 161.456 C 266.456 158.448,266.516 150.824,264.697 148.364 C 264.459 148.042,264.199 147.571,264.119 147.318 C 263.530 145.464,259.180 142.521,255.686 141.615 C 254.762 141.375,250.092 141.378,248.964 141.620 M271.686 141.720 C 269.458 142.690,269.524 146.201,271.795 147.531 C 272.316 147.837,273.194 147.990,275.079 148.106 C 278.513 148.316,278.186 147.416,278.333 157.042 C 278.471 166.091,278.457 165.999,279.918 167.171 C 280.868 167.933,280.952 167.955,282.854 167.955 L 284.811 167.955 285.704 167.059 C 287.104 165.653,287.283 164.383,287.283 155.852 C 287.283 147.503,287.040 148.124,290.302 148.122 C 292.959 148.120,293.843 147.858,294.618 146.843 C 295.859 145.215,295.182 142.285,293.409 141.611 C 292.476 141.256,272.522 141.357,271.686 141.720 M224.367 147.032 C 226.104 147.961,225.986 152.688,224.194 153.980 C 221.686 155.788,220.903 154.940,220.995 150.514 C 221.079 146.473,221.845 145.682,224.367 147.032 M253.581 147.690 C 257.894 150.355,256.592 163.183,252.097 162.315 C 248.572 161.635,247.028 152.604,249.803 148.907 C 250.953 147.376,252.347 146.927,253.581 147.690 M11.709 194.965 C 10.661 195.386,11.182 195.865,12.947 196.105 C 14.855 196.364,14.790 196.174,14.790 201.457 C 14.790 206.542,14.859 206.829,15.978 206.403 L 16.549 206.186 16.622 201.562 C 16.702 196.477,16.753 196.303,18.161 196.303 C 19.631 196.303,20.528 195.632,19.899 195.003 C 19.576 194.680,12.500 194.647,11.709 194.965 M42.846 195.003 C 42.395 195.454,42.471 206.025,42.929 206.483 C 43.340 206.894,48.171 206.997,49.173 206.616 C 50.707 206.033,49.347 205.267,46.768 205.263 C 44.387 205.258,44.256 205.165,44.266 203.485 C 44.276 201.751,44.412 201.641,46.744 201.479 C 49.918 201.260,50.087 200.126,46.947 200.112 C 44.601 200.102,44.257 199.851,44.260 198.151 C 44.262 196.356,44.359 196.285,47.033 196.138 C 49.502 196.002,50.253 195.658,49.416 195.046 C 48.854 194.634,43.251 194.598,42.846 195.003 M67.883 194.947 C 66.004 195.517,64.951 197.694,65.876 199.097 C 66.449 199.967,68.913 201.457,69.778 201.457 C 70.303 201.457,71.705 203.287,71.488 203.690 C 70.632 205.288,68.068 205.873,66.830 204.752 C 66.317 204.288,65.688 204.256,65.523 204.686 C 65.421 204.950,65.979 206.387,66.183 206.387 C 66.219 206.387,66.835 206.495,67.552 206.628 C 72.303 207.506,75.291 203.691,72.000 200.950 C 71.482 200.519,70.683 200.096,70.223 200.009 C 69.299 199.836,67.451 198.453,67.451 197.935 C 67.451 196.825,68.311 196.303,70.137 196.303 C 72.171 196.303,72.605 196.184,72.605 195.628 C 72.605 194.866,69.587 194.430,67.883 194.947 M80.280 194.984 C 79.803 195.474,79.884 206.356,80.367 206.541 C 81.185 206.855,81.452 206.320,81.569 204.128 C 81.698 201.713,81.909 201.466,83.851 201.460 C 85.116 201.456,85.964 201.159,86.608 200.495 C 86.872 200.223,87.283 199.888,87.521 199.751 C 88.239 199.340,88.148 196.855,87.395 196.292 C 87.087 196.062,86.536 195.642,86.172 195.360 C 85.367 194.737,80.805 194.446,80.280 194.984 M97.114 195.045 C 96.728 195.219,96.340 195.479,96.252 195.622 C 96.163 195.765,95.852 195.973,95.559 196.084 C 94.683 196.417,93.445 199.134,93.445 200.723 C 93.445 202.382,94.515 204.616,95.686 205.405 C 96.118 205.696,96.713 206.109,97.009 206.322 C 97.718 206.834,100.686 206.875,101.527 206.385 C 103.364 205.315,103.761 204.942,104.461 203.629 C 107.043 198.782,101.968 192.854,97.114 195.045 M110.588 195.102 C 110.045 195.645,110.569 196.057,112.020 196.229 C 113.863 196.448,113.838 196.374,113.838 201.445 C 113.838 206.293,113.888 206.487,115.112 206.347 L 115.742 206.275 115.803 201.586 C 115.871 196.344,115.847 196.421,117.466 196.206 C 119.372 195.953,119.925 195.475,118.869 194.994 C 117.904 194.554,111.046 194.644,110.588 195.102 M133.560 195.067 C 133.070 195.657,133.462 196.006,134.794 196.162 C 137.041 196.426,136.919 196.142,136.919 201.114 C 136.919 205.860,137.052 206.611,137.898 206.611 C 138.675 206.611,138.711 206.382,138.715 201.382 C 138.719 196.119,138.621 196.395,140.554 196.188 C 142.268 196.005,142.899 195.565,142.190 195.046 C 141.547 194.576,133.952 194.595,133.560 195.067 M151.485 194.907 C 145.378 197.877,146.788 206.723,153.367 206.723 C 158.165 206.723,160.959 200.604,157.849 196.908 C 156.396 195.180,153.071 194.135,151.485 194.907 M176.908 194.886 C 176.656 194.936,176.012 195.377,175.476 195.867 L 174.504 196.756 174.636 198.042 C 174.730 198.955,174.897 199.425,175.213 199.664 C 176.184 200.398,177.558 201.137,178.547 201.457 C 180.356 202.041,180.829 203.677,179.557 204.949 C 179.040 205.466,176.771 205.367,176.046 204.796 C 175.288 204.200,174.790 204.381,174.790 205.254 C 174.790 207.375,179.818 207.305,181.703 205.158 C 183.224 203.426,181.980 200.772,179.324 200.081 C 178.798 199.945,178.003 199.543,177.556 199.188 C 177.110 198.834,176.658 198.543,176.552 198.543 C 176.161 198.543,176.374 197.430,176.876 196.847 C 177.361 196.283,177.502 196.247,179.143 196.279 C 180.875 196.313,181.513 196.106,181.513 195.513 C 181.513 194.902,178.731 194.524,176.908 194.886 M189.356 195.182 C 188.934 195.604,188.908 195.929,188.908 200.687 C 188.908 205.850,189.018 206.611,189.767 206.611 C 190.520 206.611,190.700 206.129,190.700 204.117 C 190.700 201.563,190.804 201.457,193.283 201.457 C 196.279 201.457,196.478 201.639,196.582 204.476 C 196.644 206.193,197.199 206.866,198.137 206.364 C 198.696 206.065,198.768 195.648,198.215 195.188 C 197.252 194.389,196.643 195.185,196.579 197.329 C 196.500 199.962,196.339 200.112,193.574 200.112 C 190.717 200.112,190.700 200.097,190.700 197.543 C 190.700 195.928,190.618 195.356,190.348 195.086 C 189.904 194.642,189.895 194.643,189.356 195.182 M208.863 195.361 C 208.467 195.756,208.146 196.408,207.992 197.126 C 207.857 197.752,207.492 198.746,207.179 199.334 C 206.866 199.922,206.611 200.606,206.611 200.854 C 206.611 201.102,206.369 201.717,206.074 202.221 C 205.779 202.725,205.422 203.591,205.280 204.146 C 205.139 204.700,204.913 205.374,204.779 205.643 C 204.482 206.237,204.674 206.835,205.162 206.835 C 205.865 206.835,206.375 206.365,206.642 205.473 C 207.010 204.246,207.407 204.092,209.972 204.181 C 212.477 204.268,212.869 204.477,213.311 205.954 C 213.640 207.052,214.154 207.314,214.686 206.656 C 215.133 206.105,214.735 204.212,213.807 202.474 C 213.547 201.985,213.333 201.389,213.333 201.149 C 213.333 200.908,213.095 200.299,212.803 199.796 C 212.512 199.292,212.149 198.352,211.998 197.707 C 211.403 195.178,210.054 194.169,208.863 195.361 M221.849 195.182 C 221.242 195.789,221.147 205.897,221.743 206.392 C 222.548 207.060,223.193 206.327,223.193 204.744 C 223.193 201.936,223.956 201.141,225.603 202.231 C 226.538 202.850,227.762 204.528,228.016 205.542 C 228.237 206.423,228.621 206.666,229.351 206.388 C 229.740 206.240,229.917 206.041,229.839 205.837 C 229.772 205.662,229.601 205.083,229.460 204.552 C 229.319 204.020,229.018 203.384,228.790 203.137 C 227.796 202.059,227.611 200.435,228.446 200.117 C 230.519 199.329,229.381 195.355,226.942 194.867 C 225.279 194.535,222.313 194.718,221.849 195.182 M236.583 194.976 C 236.077 195.270,235.971 206.220,236.471 206.539 C 236.885 206.804,241.780 206.910,242.689 206.674 C 244.664 206.161,243.444 205.325,240.666 205.288 C 238.385 205.258,237.983 204.968,237.983 203.354 C 237.983 201.837,238.537 201.457,240.746 201.457 C 243.584 201.457,243.338 200.209,240.474 200.079 C 238.229 199.977,237.983 199.778,237.983 198.056 C 237.983 196.417,238.535 196.078,241.207 196.078 C 243.509 196.078,244.341 195.602,243.152 194.966 C 242.594 194.667,237.098 194.676,236.583 194.976 M262.985 195.086 C 262.792 195.280,262.633 195.567,262.633 195.725 C 262.633 195.883,262.380 196.488,262.070 197.071 C 261.760 197.653,261.404 198.590,261.278 199.152 C 261.152 199.714,260.860 200.413,260.630 200.705 C 260.400 200.998,260.087 201.766,259.935 202.412 C 259.782 203.057,259.473 203.848,259.248 204.169 C 258.666 205.001,258.488 206.392,258.896 206.938 C 259.313 207.498,259.805 207.152,260.172 206.040 C 260.895 203.847,265.811 203.171,266.822 205.125 C 267.528 206.492,268.504 207.525,268.831 207.253 C 269.301 206.863,269.185 205.614,268.571 204.460 C 268.263 203.881,268.011 203.194,268.011 202.934 C 268.011 202.674,267.769 202.007,267.474 201.452 C 267.179 200.897,266.816 199.991,266.669 199.437 C 266.522 198.884,266.218 198.129,265.993 197.759 C 265.768 197.389,265.513 196.706,265.427 196.241 C 265.181 194.914,263.807 194.264,262.985 195.086 M283.641 194.976 C 282.678 195.537,283.186 195.954,285.125 196.197 C 286.833 196.410,286.835 196.414,286.835 201.639 C 286.835 206.568,286.913 206.872,288.042 206.357 L 288.627 206.091 288.627 201.695 C 288.627 196.524,288.662 196.421,290.429 196.251 C 291.777 196.121,292.447 195.622,291.998 195.081 C 291.655 194.667,284.330 194.575,283.641 194.976 M298.711 195.182 C 298.290 195.604,298.263 195.929,298.263 200.687 C 298.263 205.850,298.374 206.611,299.123 206.611 C 299.876 206.611,300.056 206.129,300.056 204.117 C 300.056 201.563,300.160 201.457,302.639 201.457 C 305.609 201.457,305.874 201.696,305.879 204.398 C 305.882 205.882,306.012 206.164,306.828 206.454 C 307.787 206.796,307.899 206.207,307.899 200.811 C 307.899 195.097,307.817 194.724,306.647 195.113 C 305.998 195.329,305.994 195.341,305.935 197.329 C 305.855 199.990,305.716 200.112,302.765 200.112 C 300.050 200.112,300.056 200.118,300.056 197.506 C 300.056 195.925,299.973 195.355,299.704 195.086 C 299.260 194.642,299.251 194.643,298.711 195.182 M317.826 195.063 C 311.990 197.601,313.781 206.723,320.117 206.723 C 324.241 206.723,326.616 202.916,325.372 198.298 C 324.686 195.750,320.436 193.928,317.826 195.063 M332.205 195.110 C 331.672 195.643,331.809 203.216,332.371 204.258 C 334.152 207.560,338.203 207.630,340.446 204.396 L 341.164 203.361 341.235 199.440 C 341.311 195.244,341.222 194.814,340.328 195.038 L 339.767 195.179 339.685 198.710 C 339.572 203.559,338.739 205.271,336.496 205.263 C 335.393 205.259,335.313 205.208,334.391 203.933 L 333.669 202.937 333.669 199.333 C 333.669 195.070,333.303 194.012,332.205 195.110 M351.377 194.899 C 347.472 196.433,346.306 202.374,349.327 205.350 C 350.875 206.875,353.109 207.243,354.697 206.235 C 355.162 205.940,355.263 205.942,355.611 206.257 C 356.115 206.714,357.112 206.713,357.287 206.256 C 357.516 205.659,357.438 201.007,357.191 200.545 C 356.883 199.971,353.685 199.890,353.469 200.451 C 353.285 200.930,353.793 201.457,354.440 201.457 C 356.029 201.457,356.340 202.799,355.151 204.527 L 354.448 205.549 352.871 205.402 C 349.120 205.054,347.973 200.259,350.920 197.241 L 351.864 196.275 353.646 196.322 C 355.495 196.371,355.953 196.197,355.818 195.496 C 355.698 194.871,352.533 194.446,351.377 194.899 M364.190 195.003 C 363.873 195.320,363.806 205.858,364.118 206.350 C 364.788 207.406,365.376 206.537,365.491 204.325 C 365.552 203.129,365.720 202.034,365.862 201.891 C 366.404 201.349,370.427 201.349,371.296 201.891 C 371.513 202.026,371.654 202.735,371.745 204.158 C 371.882 206.316,372.157 206.852,372.967 206.541 C 373.485 206.342,373.527 195.398,373.012 194.970 C 372.175 194.276,371.765 195.040,371.765 197.291 C 371.765 199.996,371.761 200.000,368.628 200.000 C 365.501 200.000,365.490 199.991,365.490 197.328 C 365.490 195.332,365.309 194.734,364.706 194.734 C 364.570 194.734,364.338 194.855,364.190 195.003 M379.664 194.965 C 378.618 195.385,379.240 195.932,381.064 196.197 C 382.810 196.450,382.745 196.246,382.745 201.457 C 382.745 206.558,382.812 206.830,383.950 206.397 L 384.538 206.174 384.540 202.302 C 384.544 196.441,384.499 196.560,386.889 196.155 C 388.044 195.960,388.529 195.353,387.865 194.932 C 387.463 194.678,380.308 194.706,379.664 194.965 M26.275 195.189 C 25.771 195.391,25.770 195.402,25.770 200.773 L 25.770 206.154 26.313 206.290 C 27.552 206.601,27.666 206.438,27.787 204.181 C 27.928 201.547,28.026 201.457,30.727 201.457 C 33.277 201.457,33.389 201.564,33.389 204.007 C 33.389 206.303,33.667 206.824,34.641 206.358 L 35.294 206.045 35.357 201.118 C 35.430 195.469,35.406 195.287,34.577 195.079 C 33.638 194.843,33.389 195.389,33.389 197.682 C 33.389 200.079,33.350 200.112,30.507 200.112 C 27.873 200.112,27.787 200.028,27.787 197.452 C 27.787 195.049,27.541 194.680,26.275 195.189 M85.640 197.008 C 87.179 198.864,84.536 200.897,81.961 199.839 C 81.477 199.640,81.385 196.955,81.849 196.578 C 82.811 195.797,84.824 196.025,85.640 197.008 M101.642 197.138 C 103.834 198.970,103.779 202.714,101.534 204.490 C 98.933 206.549,95.462 204.386,95.462 200.707 C 95.462 199.433,96.183 197.633,96.826 197.301 C 97.155 197.131,97.482 196.843,97.551 196.661 C 97.685 196.312,98.904 196.126,100.053 196.280 C 100.421 196.329,101.136 196.715,101.642 197.138 M227.276 196.956 C 228.955 198.836,226.326 201.048,223.903 199.795 C 222.739 199.193,222.870 196.832,224.096 196.316 C 225.119 195.886,226.582 196.180,227.276 196.956 M155.668 197.255 C 158.759 200.095,157.256 205.266,153.340 205.266 C 152.109 205.266,152.060 205.241,150.776 203.957 L 149.468 202.649 149.468 200.921 C 149.468 196.857,152.977 194.782,155.668 197.255 M322.563 197.479 C 325.339 200.182,323.949 204.955,320.310 205.215 C 318.310 205.358,316.382 203.660,316.083 201.493 C 315.495 197.217,319.649 194.643,322.563 197.479 M210.671 199.071 C 210.880 199.775,211.212 200.597,211.408 200.896 C 212.212 202.123,211.610 202.801,209.719 202.801 C 207.676 202.801,207.486 201.836,208.992 199.098 C 209.944 197.365,210.164 197.362,210.671 199.071 M264.335 198.717 C 265.297 199.596,265.845 202.024,265.191 202.516 C 263.908 203.483,261.449 202.428,262.151 201.211 C 262.393 200.792,262.662 199.994,262.750 199.440 C 263.003 197.834,263.246 197.723,264.335 198.717 " stroke="none" fill="#152d51" fill-rule="evenodd"></path><path id="path1" d="M0.000 112.045 L 0.000 224.090 200.000 224.090 L 400.000 224.090 400.000 112.045 L 400.000 0.000 200.000 0.000 L 0.000 0.000 0.000 112.045 M250.756 6.391 C 256.736 8.142,261.146 12.425,263.340 18.615 C 264.340 21.435,264.478 27.506,263.585 29.440 C 263.308 30.041,263.081 30.667,263.081 30.830 C 263.081 31.397,261.235 34.629,260.148 35.966 C 257.468 39.263,254.041 41.408,249.524 42.618 C 242.954 44.377,234.364 40.837,230.121 34.621 C 220.464 20.474,234.283 1.569,250.756 6.391 M218.940 10.871 C 221.175 12.027,221.348 15.578,219.236 16.963 C 218.655 17.343,217.251 17.375,195.080 17.512 C 181.140 17.597,170.947 17.749,170.084 17.883 C 169.283 18.007,167.560 18.265,166.255 18.456 C 164.951 18.646,163.337 19.004,162.670 19.250 C 162.003 19.496,160.952 19.816,160.336 19.961 C 159.720 20.106,159.014 20.346,158.768 20.496 C 158.521 20.646,157.815 20.957,157.199 21.187 C 156.021 21.628,154.550 22.361,152.703 23.428 C 146.249 27.157,139.750 33.933,136.701 40.112 C 136.185 41.160,135.654 42.216,135.522 42.460 C 134.161 44.978,132.542 50.739,132.213 54.230 C 132.080 55.647,131.887 57.700,131.785 58.792 C 131.683 59.884,131.684 61.145,131.789 61.593 C 131.893 62.042,131.982 63.165,131.987 64.090 C 132.047 74.789,139.136 87.703,148.907 94.913 C 151.186 96.594,157.129 99.944,157.833 99.944 C 157.947 99.944,158.606 100.189,159.300 100.488 C 164.508 102.736,167.940 103.077,185.371 103.079 C 201.918 103.082,200.219 102.786,202.736 106.095 C 209.443 114.913,216.488 121.407,219.108 121.190 C 220.562 121.069,220.601 120.850,220.728 112.045 C 220.866 102.546,220.666 103.106,224.094 102.637 C 226.252 102.342,230.089 101.294,231.961 100.487 C 232.654 100.188,233.337 99.944,233.478 99.944 C 233.961 99.944,238.494 97.520,240.225 96.336 C 247.972 91.037,252.385 85.518,256.824 75.574 C 259.111 70.451,259.989 58.661,258.613 51.541 C 258.052 48.635,258.049 48.089,258.591 46.895 C 259.866 44.086,263.645 44.431,265.155 47.493 C 265.731 48.663,266.073 68.948,265.561 71.538 C 264.492 76.934,260.700 85.547,257.641 89.524 C 257.167 90.140,256.237 91.350,255.575 92.213 C 254.912 93.076,253.280 94.855,251.947 96.166 C 246.327 101.697,240.352 105.438,233.501 107.713 C 227.331 109.763,227.940 108.853,227.853 116.157 L 227.781 122.241 227.061 123.763 C 225.323 127.436,224.075 128.048,218.572 127.920 L 215.238 127.843 213.704 127.002 C 209.792 124.858,204.677 120.173,199.994 114.445 C 198.562 112.693,197.177 111.109,196.916 110.924 C 196.511 110.638,194.344 110.568,182.198 110.451 C 170.241 110.336,167.757 110.257,166.723 109.963 C 166.045 109.770,164.683 109.496,163.697 109.355 C 162.031 109.116,159.550 108.433,157.423 107.626 C 154.428 106.491,153.598 106.128,151.373 104.982 C 150.017 104.284,148.756 103.583,148.571 103.424 C 148.387 103.265,147.882 102.957,147.451 102.738 C 144.546 101.268,137.777 95.083,134.777 91.159 C 123.054 75.824,121.076 55.389,129.617 37.833 C 130.631 35.750,131.090 34.961,132.859 32.269 C 138.704 23.372,148.467 16.059,158.992 12.693 C 160.725 12.139,166.465 10.873,168.067 10.693 C 170.785 10.386,218.324 10.552,218.940 10.871 M167.134 37.807 C 172.089 40.143,172.404 46.772,167.699 49.688 C 163.440 52.326,157.760 49.056,157.759 43.965 C 157.759 39.232,162.938 35.829,167.134 37.807 M209.275 37.525 C 211.636 37.895,214.203 40.991,214.392 43.697 C 214.734 48.565,208.976 52.208,204.594 49.897 C 199.033 46.965,200.257 38.456,206.387 37.437 C 207.345 37.278,207.785 37.291,209.275 37.525 M161.337 62.441 C 162.258 62.625,163.204 63.607,164.585 65.809 C 171.382 76.653,187.560 81.612,202.465 77.422 C 210.244 75.235,215.112 71.858,219.160 65.841 C 221.416 62.486,222.511 61.815,224.604 62.506 C 226.872 63.254,226.675 68.342,224.255 71.552 C 208.654 92.243,169.723 90.662,157.835 68.854 C 155.664 64.870,157.418 61.657,161.337 62.441 M117.418 142.102 C 118.581 142.907,119.748 144.530,120.098 145.831 C 120.231 146.324,120.490 146.851,120.673 147.004 C 120.857 147.156,121.158 147.789,121.343 148.411 C 121.528 149.033,121.822 149.702,121.997 149.897 C 122.172 150.092,122.507 150.756,122.742 151.373 C 123.767 154.070,124.805 155.010,125.254 153.650 C 125.390 153.238,125.751 152.563,126.056 152.149 C 126.361 151.736,126.611 151.230,126.611 151.024 C 126.611 150.819,126.850 150.297,127.143 149.866 C 127.436 149.434,127.795 148.720,127.941 148.280 C 128.086 147.839,128.386 147.246,128.608 146.961 C 128.829 146.676,129.130 146.076,129.276 145.627 C 130.885 140.693,138.113 139.811,140.407 144.269 L 141.064 145.546 141.129 155.074 L 141.194 164.602 140.672 165.589 C 139.683 167.459,138.777 167.955,136.348 167.955 L 134.251 167.955 133.341 167.067 C 132.119 165.873,131.992 165.259,131.990 160.547 C 131.989 156.133,131.749 155.070,130.980 156.065 C 130.796 156.304,130.644 156.669,130.644 156.875 C 130.644 157.082,130.440 157.510,130.191 157.826 C 129.942 158.143,129.591 158.819,129.412 159.328 C 129.232 159.837,128.894 160.524,128.662 160.855 C 128.429 161.186,128.162 161.709,128.069 162.017 C 127.484 163.956,125.502 166.050,124.252 166.050 C 122.899 166.050,119.888 163.376,119.888 162.173 C 119.888 162.077,119.687 161.725,119.442 161.391 C 118.942 160.711,118.189 159.349,117.342 157.591 C 116.851 156.571,116.689 156.415,116.123 156.415 L 115.470 156.415 115.357 160.963 C 115.200 167.250,114.821 168.073,112.086 168.064 C 110.747 168.060,110.057 167.704,109.480 166.722 C 108.985 165.880,108.754 147.778,109.204 145.137 C 109.747 141.953,114.608 140.157,117.418 142.102 M151.438 142.000 C 151.772 142.247,153.047 143.600,154.271 145.006 C 156.779 147.887,157.337 148.179,158.253 147.091 C 162.402 142.161,163.245 141.513,165.507 141.513 C 167.982 141.513,169.412 142.906,169.412 145.318 C 169.412 147.135,169.456 147.062,165.266 152.177 C 161.594 156.661,161.793 156.266,161.789 159.056 C 161.777 166.291,160.915 167.955,157.182 167.955 C 153.610 167.955,152.605 166.180,152.605 159.870 C 152.605 156.192,152.670 156.342,149.463 152.603 C 145.170 147.597,145.322 147.850,145.322 145.738 C 145.322 143.661,145.443 143.445,147.339 142.142 C 148.655 141.237,150.329 141.179,151.438 142.000 M198.992 141.613 C 202.103 142.412,203.749 143.276,205.409 144.980 C 207.582 147.212,206.317 149.742,203.609 148.581 C 203.021 148.329,202.422 148.123,202.278 148.123 C 202.134 148.123,201.462 147.831,200.784 147.475 C 199.475 146.787,197.058 146.296,195.957 146.494 C 193.690 146.901,194.128 149.318,196.724 150.722 C 197.293 151.030,198.011 151.424,198.319 151.597 C 198.627 151.770,199.182 152.057,199.552 152.235 C 200.178 152.535,201.391 153.209,203.241 154.286 C 208.931 157.595,208.428 164.690,202.326 167.187 L 200.448 167.955 196.527 167.955 C 192.493 167.955,190.381 167.554,188.235 166.379 C 187.927 166.210,187.272 165.853,186.779 165.586 C 184.058 164.108,182.874 161.005,184.665 160.044 C 185.409 159.645,188.090 159.862,189.747 160.456 C 196.438 162.854,198.965 160.037,192.579 157.300 C 192.066 157.080,191.583 156.798,191.506 156.674 C 191.429 156.549,190.990 156.327,190.529 156.179 C 190.069 156.032,189.490 155.734,189.244 155.517 C 188.997 155.300,188.454 154.949,188.036 154.738 C 182.436 151.905,183.035 144.685,189.060 142.391 C 191.570 141.435,196.727 141.031,198.992 141.613 M227.564 141.993 C 228.058 142.258,228.865 142.584,229.357 142.719 C 233.542 143.862,236.326 151.142,233.978 154.802 C 231.899 158.041,228.591 159.787,224.123 160.002 C 221.088 160.148,220.952 160.250,220.952 162.393 C 220.952 164.429,220.116 166.393,218.869 167.283 C 216.466 168.998,212.428 167.815,211.745 165.195 C 211.257 163.323,211.198 146.836,211.672 144.823 C 212.067 143.145,213.088 141.899,214.348 141.557 C 215.804 141.161,226.681 141.520,227.564 141.993 M255.686 141.615 C 259.180 142.521,263.530 145.464,264.119 147.318 C 264.199 147.571,264.459 148.042,264.697 148.364 C 266.516 150.824,266.456 158.448,264.594 161.456 C 261.651 166.209,258.315 167.959,252.217 167.949 L 248.627 167.943 246.723 167.141 C 243.315 165.708,240.623 163.224,239.883 160.831 C 239.723 160.312,239.406 159.535,239.179 159.104 C 238.379 157.580,238.590 151.825,239.528 149.580 C 240.779 146.586,244.290 142.761,245.806 142.740 C 246.002 142.737,246.616 142.522,247.171 142.262 C 248.907 141.446,253.648 141.086,255.686 141.615 M293.409 141.611 C 295.182 142.285,295.859 145.215,294.618 146.843 C 293.843 147.858,292.959 148.120,290.302 148.122 C 287.040 148.124,287.283 147.503,287.283 155.852 C 287.283 164.383,287.104 165.653,285.704 167.059 L 284.811 167.955 282.854 167.955 C 280.952 167.955,280.868 167.933,279.918 167.171 C 278.457 165.999,278.471 166.091,278.333 157.042 C 278.186 147.416,278.513 148.316,275.079 148.106 C 273.194 147.990,272.316 147.837,271.795 147.531 C 269.524 146.201,269.458 142.690,271.686 141.720 C 272.522 141.357,292.476 141.256,293.409 141.611 M221.513 146.858 C 220.922 147.295,220.696 153.526,221.244 154.267 C 222.141 155.481,224.882 154.139,225.388 152.238 C 225.900 150.313,225.361 147.563,224.367 147.032 C 223.573 146.607,221.983 146.510,221.513 146.858 M250.820 147.955 C 247.629 150.693,247.492 158.702,250.589 161.384 C 254.156 164.473,257.293 158.552,255.921 151.319 C 255.319 148.141,252.652 146.383,250.820 147.955 M19.899 195.003 C 20.528 195.632,19.631 196.303,18.161 196.303 C 16.753 196.303,16.702 196.477,16.622 201.562 L 16.549 206.186 15.978 206.403 C 14.859 206.829,14.790 206.542,14.790 201.457 C 14.790 196.174,14.855 196.364,12.947 196.105 C 11.182 195.865,10.661 195.386,11.709 194.965 C 12.500 194.647,19.576 194.680,19.899 195.003 M49.416 195.046 C 50.253 195.658,49.502 196.002,47.033 196.138 C 44.359 196.285,44.262 196.356,44.260 198.151 C 44.257 199.851,44.601 200.102,46.947 200.112 C 50.087 200.126,49.918 201.260,46.744 201.479 C 44.412 201.641,44.276 201.751,44.266 203.485 C 44.256 205.165,44.387 205.258,46.768 205.263 C 49.347 205.267,50.707 206.033,49.173 206.616 C 48.171 206.997,43.340 206.894,42.929 206.483 C 42.471 206.025,42.395 195.454,42.846 195.003 C 43.251 194.598,48.854 194.634,49.416 195.046 M71.899 194.980 C 73.629 195.583,72.670 196.303,70.137 196.303 C 66.694 196.303,66.765 199.361,70.223 200.009 C 70.969 200.149,72.670 201.317,73.106 201.987 C 73.196 202.127,73.272 202.812,73.274 203.510 C 73.280 205.824,70.727 207.214,67.552 206.628 C 66.835 206.495,66.219 206.387,66.183 206.387 C 65.979 206.387,65.421 204.950,65.523 204.686 C 65.688 204.256,66.317 204.288,66.830 204.752 C 68.068 205.873,70.632 205.288,71.488 203.690 C 71.705 203.287,70.303 201.457,69.778 201.457 C 68.913 201.457,66.449 199.967,65.876 199.097 C 64.172 196.511,68.265 193.713,71.899 194.980 M86.172 195.360 C 86.536 195.642,87.087 196.062,87.395 196.292 C 88.148 196.855,88.239 199.340,87.521 199.751 C 87.283 199.888,86.872 200.223,86.608 200.495 C 85.964 201.159,85.116 201.456,83.851 201.460 C 81.909 201.466,81.698 201.713,81.569 204.128 C 81.452 206.320,81.185 206.855,80.367 206.541 C 79.884 206.356,79.803 195.474,80.280 194.984 C 80.805 194.446,85.367 194.737,86.172 195.360 M102.446 195.683 C 105.182 197.499,106.003 200.735,104.461 203.629 C 103.761 204.942,103.364 205.315,101.527 206.385 C 100.686 206.875,97.718 206.834,97.009 206.322 C 96.713 206.109,96.118 205.696,95.686 205.405 C 94.515 204.616,93.445 202.382,93.445 200.723 C 93.445 199.134,94.683 196.417,95.559 196.084 C 95.852 195.973,96.163 195.765,96.252 195.622 C 96.999 194.413,100.586 194.448,102.446 195.683 M118.869 194.994 C 119.925 195.475,119.372 195.953,117.466 196.206 C 115.847 196.421,115.871 196.344,115.803 201.586 L 115.742 206.275 115.112 206.347 C 113.888 206.487,113.838 206.293,113.838 201.445 C 113.838 196.374,113.863 196.448,112.020 196.229 C 110.569 196.057,110.045 195.645,110.588 195.102 C 111.046 194.644,117.904 194.554,118.869 194.994 M142.190 195.046 C 142.899 195.565,142.268 196.005,140.554 196.188 C 138.621 196.395,138.719 196.119,138.715 201.382 C 138.711 206.382,138.675 206.611,137.898 206.611 C 137.052 206.611,136.919 205.860,136.919 201.114 C 136.919 196.142,137.041 196.426,134.794 196.162 C 133.462 196.006,133.070 195.657,133.560 195.067 C 133.952 194.595,141.547 194.576,142.190 195.046 M156.234 195.538 C 160.276 198.216,160.146 203.014,155.947 206.162 C 153.426 208.053,148.596 205.905,147.883 202.577 C 147.114 198.980,148.298 196.456,151.485 194.907 C 152.396 194.463,155.168 194.832,156.234 195.538 M180.807 194.980 C 182.433 195.547,181.438 196.324,179.143 196.279 C 177.502 196.247,177.361 196.283,176.876 196.847 C 176.374 197.430,176.161 198.543,176.552 198.543 C 176.658 198.543,177.110 198.834,177.556 199.188 C 178.003 199.543,178.798 199.945,179.324 200.081 C 181.980 200.772,183.224 203.426,181.703 205.158 C 179.818 207.305,174.790 207.375,174.790 205.254 C 174.790 204.381,175.288 204.200,176.046 204.796 C 176.771 205.367,179.040 205.466,179.557 204.949 C 180.829 203.677,180.356 202.041,178.547 201.457 C 177.558 201.137,176.184 200.398,175.213 199.664 C 174.897 199.425,174.730 198.955,174.636 198.042 L 174.504 196.756 175.476 195.867 C 176.012 195.377,176.656 194.936,176.908 194.886 C 177.887 194.692,180.135 194.746,180.807 194.980 M190.348 195.086 C 190.618 195.356,190.700 195.928,190.700 197.543 C 190.700 200.097,190.717 200.112,193.574 200.112 C 196.339 200.112,196.500 199.962,196.579 197.329 C 196.643 195.185,197.252 194.389,198.215 195.188 C 198.768 195.648,198.696 206.065,198.137 206.364 C 197.199 206.866,196.644 206.193,196.582 204.476 C 196.478 201.639,196.279 201.457,193.283 201.457 C 190.804 201.457,190.700 201.563,190.700 204.117 C 190.700 206.129,190.520 206.611,189.767 206.611 C 189.018 206.611,188.908 205.850,188.908 200.687 C 188.908 195.929,188.934 195.604,189.356 195.182 C 189.895 194.643,189.904 194.642,190.348 195.086 M211.070 195.634 C 211.428 196.130,211.846 197.062,211.998 197.707 C 212.149 198.352,212.512 199.292,212.803 199.796 C 213.095 200.299,213.333 200.908,213.333 201.149 C 213.333 201.389,213.547 201.985,213.807 202.474 C 214.735 204.212,215.133 206.105,214.686 206.656 C 214.154 207.314,213.640 207.052,213.311 205.954 C 212.869 204.477,212.477 204.268,209.972 204.181 C 207.407 204.092,207.010 204.246,206.642 205.473 C 206.375 206.365,205.865 206.835,205.162 206.835 C 204.674 206.835,204.482 206.237,204.779 205.643 C 204.913 205.374,205.139 204.700,205.280 204.146 C 205.422 203.591,205.779 202.725,206.074 202.221 C 206.369 201.717,206.611 201.102,206.611 200.854 C 206.611 200.606,206.866 199.922,207.179 199.334 C 207.492 198.746,207.857 197.752,207.992 197.126 C 208.483 194.836,209.969 194.116,211.070 195.634 M226.942 194.867 C 229.381 195.355,230.519 199.329,228.446 200.117 C 227.611 200.435,227.796 202.059,228.790 203.137 C 229.018 203.384,229.319 204.020,229.460 204.552 C 229.601 205.083,229.772 205.662,229.839 205.837 C 229.917 206.041,229.740 206.240,229.351 206.388 C 228.621 206.666,228.237 206.423,228.016 205.542 C 227.762 204.528,226.538 202.850,225.603 202.231 C 223.956 201.141,223.193 201.936,223.193 204.744 C 223.193 206.327,222.548 207.060,221.743 206.392 C 221.147 205.897,221.242 195.789,221.849 195.182 C 222.313 194.718,225.279 194.535,226.942 194.867 M243.152 194.966 C 244.341 195.602,243.509 196.078,241.207 196.078 C 238.535 196.078,237.983 196.417,237.983 198.056 C 237.983 199.778,238.229 199.977,240.474 200.079 C 243.338 200.209,243.584 201.457,240.746 201.457 C 238.537 201.457,237.983 201.837,237.983 203.354 C 237.983 204.968,238.385 205.258,240.666 205.288 C 243.444 205.325,244.664 206.161,242.689 206.674 C 241.780 206.910,236.885 206.804,236.471 206.539 C 235.971 206.220,236.077 195.270,236.583 194.976 C 237.098 194.676,242.594 194.667,243.152 194.966 M264.798 195.065 C 265.061 195.249,265.340 195.770,265.427 196.241 C 265.513 196.706,265.768 197.389,265.993 197.759 C 266.218 198.129,266.522 198.884,266.669 199.437 C 266.816 199.991,267.179 200.897,267.474 201.452 C 267.769 202.007,268.011 202.674,268.011 202.934 C 268.011 203.194,268.263 203.881,268.571 204.460 C 269.185 205.614,269.301 206.863,268.831 207.253 C 268.504 207.525,267.528 206.492,266.822 205.125 C 265.811 203.171,260.895 203.847,260.172 206.040 C 259.805 207.152,259.313 207.498,258.896 206.938 C 258.488 206.392,258.666 205.001,259.248 204.169 C 259.473 203.848,259.782 203.057,259.935 202.412 C 260.087 201.766,260.400 200.998,260.630 200.705 C 260.860 200.413,261.152 199.714,261.278 199.152 C 261.404 198.590,261.760 197.653,262.070 197.071 C 262.380 196.488,262.633 195.883,262.633 195.725 C 262.633 194.862,263.939 194.463,264.798 195.065 M291.998 195.081 C 292.447 195.622,291.777 196.121,290.429 196.251 C 288.662 196.421,288.627 196.524,288.627 201.695 L 288.627 206.091 288.042 206.357 C 286.913 206.872,286.835 206.568,286.835 201.639 C 286.835 196.414,286.833 196.410,285.125 196.197 C 283.186 195.954,282.678 195.537,283.641 194.976 C 284.330 194.575,291.655 194.667,291.998 195.081 M299.704 195.086 C 299.973 195.355,300.056 195.925,300.056 197.506 C 300.056 200.118,300.050 200.112,302.765 200.112 C 305.716 200.112,305.855 199.990,305.935 197.329 C 305.994 195.341,305.998 195.329,306.647 195.113 C 307.817 194.724,307.899 195.097,307.899 200.811 C 307.899 206.207,307.787 206.796,306.828 206.454 C 306.012 206.164,305.882 205.882,305.879 204.398 C 305.874 201.696,305.609 201.457,302.639 201.457 C 300.160 201.457,300.056 201.563,300.056 204.117 C 300.056 206.129,299.876 206.611,299.123 206.611 C 298.374 206.611,298.263 205.850,298.263 200.687 C 298.263 195.929,298.290 195.604,298.711 195.182 C 299.251 194.643,299.260 194.642,299.704 195.086 M322.080 195.038 C 324.237 195.946,325.554 197.872,325.638 200.242 C 325.746 203.268,325.274 204.210,322.670 206.162 C 321.396 207.117,318.714 206.990,317.067 205.898 C 314.750 204.359,314.074 202.560,314.501 199.071 C 314.874 196.027,319.095 193.780,322.080 195.038 M333.321 195.232 C 333.601 195.633,333.669 196.435,333.669 199.333 L 333.669 202.937 334.391 203.933 C 335.313 205.208,335.393 205.259,336.496 205.263 C 338.739 205.271,339.572 203.559,339.685 198.710 L 339.767 195.179 340.328 195.038 C 341.222 194.814,341.311 195.244,341.235 199.440 L 341.164 203.361 340.446 204.396 C 338.203 207.630,334.152 207.560,332.371 204.258 C 331.809 203.216,331.672 195.643,332.205 195.110 C 332.702 194.613,332.903 194.635,333.321 195.232 M355.181 194.934 C 355.782 195.101,356.044 195.755,355.663 196.136 C 355.531 196.267,354.651 196.349,353.646 196.322 L 351.864 196.275 350.920 197.241 C 347.973 200.259,349.120 205.054,352.871 205.402 L 354.448 205.549 355.151 204.527 C 356.340 202.799,356.029 201.457,354.440 201.457 C 353.793 201.457,353.285 200.930,353.469 200.451 C 353.685 199.890,356.883 199.971,357.191 200.545 C 357.438 201.007,357.516 205.659,357.287 206.256 C 357.112 206.713,356.115 206.714,355.611 206.257 C 355.263 205.942,355.162 205.940,354.697 206.235 C 351.702 208.137,347.806 205.434,347.712 201.388 C 347.599 196.541,350.852 193.730,355.181 194.934 M365.221 195.003 C 365.391 195.173,365.490 196.028,365.490 197.328 C 365.490 199.991,365.501 200.000,368.628 200.000 C 371.761 200.000,371.765 199.996,371.765 197.291 C 371.765 195.040,372.175 194.276,373.012 194.970 C 373.527 195.398,373.485 206.342,372.967 206.541 C 372.157 206.852,371.882 206.316,371.745 204.158 C 371.654 202.735,371.513 202.026,371.296 201.891 C 370.427 201.349,366.404 201.349,365.862 201.891 C 365.720 202.034,365.552 203.129,365.491 204.325 C 365.383 206.408,365.356 206.502,364.843 206.574 C 363.985 206.696,363.929 206.330,363.925 200.661 C 363.922 195.286,363.994 194.734,364.706 194.734 C 364.841 194.734,365.073 194.855,365.221 195.003 M387.865 194.932 C 388.529 195.353,388.044 195.960,386.889 196.155 C 384.499 196.560,384.544 196.441,384.540 202.302 L 384.538 206.174 383.950 206.397 C 382.812 206.830,382.745 206.558,382.745 201.457 C 382.745 196.246,382.810 196.450,381.064 196.197 C 379.240 195.932,378.618 195.385,379.664 194.965 C 380.308 194.706,387.463 194.678,387.865 194.932 M27.518 195.227 C 27.686 195.395,27.787 196.229,27.787 197.452 C 27.787 200.028,27.873 200.112,30.507 200.112 C 33.350 200.112,33.389 200.079,33.389 197.682 C 33.389 195.389,33.638 194.843,34.577 195.079 C 35.406 195.287,35.430 195.469,35.357 201.118 L 35.294 206.045 34.641 206.358 C 33.667 206.824,33.389 206.303,33.389 204.007 C 33.389 201.564,33.277 201.457,30.727 201.457 C 28.026 201.457,27.928 201.547,27.787 204.181 C 27.666 206.438,27.552 206.601,26.313 206.290 L 25.770 206.154 25.770 200.773 C 25.770 195.402,25.771 195.391,26.275 195.189 C 26.972 194.909,27.207 194.916,27.518 195.227 M82.577 196.229 C 81.725 196.460,81.569 196.772,81.569 198.242 C 81.569 199.919,81.665 200.000,83.660 200.000 C 84.853 200.000,85.024 199.936,85.621 199.268 C 87.107 197.604,85.057 195.557,82.577 196.229 M98.531 196.261 C 98.039 196.301,97.625 196.471,97.551 196.661 C 97.482 196.843,97.155 197.131,96.826 197.301 C 95.695 197.886,95.185 200.441,95.791 202.483 C 96.867 206.105,101.634 206.212,102.892 202.641 C 104.139 199.106,101.999 195.975,98.531 196.261 M224.096 196.316 C 222.870 196.832,222.739 199.193,223.903 199.795 C 225.534 200.639,227.899 199.694,227.899 198.198 C 227.899 196.772,225.654 195.660,224.096 196.316 M151.023 197.126 C 149.721 198.302,149.468 198.921,149.468 200.921 L 149.468 202.649 150.776 203.957 C 153.476 206.657,157.270 204.905,157.301 200.945 C 157.330 197.161,153.537 194.854,151.023 197.126 M317.507 197.367 C 315.832 198.965,315.493 201.544,316.735 203.228 C 318.555 205.695,320.804 205.985,322.700 203.998 C 326.475 200.040,321.442 193.612,317.507 197.367 M208.992 199.098 C 207.486 201.836,207.676 202.801,209.719 202.801 C 211.610 202.801,212.212 202.123,211.408 200.896 C 211.212 200.597,210.880 199.775,210.671 199.071 C 210.164 197.362,209.944 197.365,208.992 199.098 M263.008 198.263 C 262.954 198.356,262.837 198.885,262.750 199.440 C 262.662 199.994,262.393 200.792,262.151 201.211 C 261.575 202.211,261.897 202.559,263.550 202.721 C 265.417 202.904,265.705 202.586,265.318 200.766 C 264.950 199.032,263.490 197.450,263.008 198.263 " stroke="none" fill="#fbfbfb" fill-rule="evenodd"></path><path id="path2" d="M242.689 5.825 C 226.792 8.801,221.462 28.284,233.725 38.588 C 237.911 42.104,244.840 43.872,249.524 42.618 C 254.041 41.408,257.468 39.263,260.148 35.966 C 261.235 34.629,263.081 31.397,263.081 30.830 C 263.081 30.667,263.308 30.041,263.585 29.440 C 264.964 26.452,264.108 19.244,261.901 15.253 C 258.229 8.616,249.821 4.490,242.689 5.825 " stroke="none" fill="#fced10" fill-rule="evenodd"></path></g></svg>